<mxfile host="app.diagrams.net" modified="2024-02-17T17:10:13.718Z" agent="Mozilla/5.0 (Windows NT 10.0; Win64; x64) AppleWebKit/537.36 (KHTML, like Gecko) Chrome/121.0.0.0 Safari/537.36" etag="Qfc5wUCRuXeKKA8qZiO2" version="23.1.5" type="device">
  <diagram id="C5RBs43oDa-KdzZeNtuy" name="Page-1">
    <mxGraphModel dx="1687" dy="972" grid="1" gridSize="10" guides="1" tooltips="1" connect="1" arrows="1" fold="1" page="1" pageScale="1" pageWidth="827" pageHeight="1169" math="0" shadow="0">
      <root>
        <mxCell id="WIyWlLk6GJQsqaUBKTNV-0" />
        <mxCell id="WIyWlLk6GJQsqaUBKTNV-1" parent="WIyWlLk6GJQsqaUBKTNV-0" />
        <mxCell id="HRm40gHiDsM_017SBDg4-2" style="edgeStyle=orthogonalEdgeStyle;rounded=0;orthogonalLoop=1;jettySize=auto;html=1;entryX=0.5;entryY=0;entryDx=0;entryDy=0;" edge="1" parent="WIyWlLk6GJQsqaUBKTNV-1" source="HRm40gHiDsM_017SBDg4-0" target="HRm40gHiDsM_017SBDg4-1">
          <mxGeometry relative="1" as="geometry" />
        </mxCell>
        <mxCell id="HRm40gHiDsM_017SBDg4-0" value="Начало" style="ellipse;whiteSpace=wrap;html=1;" vertex="1" parent="WIyWlLk6GJQsqaUBKTNV-1">
          <mxGeometry x="175" y="40" width="120" height="40" as="geometry" />
        </mxCell>
        <mxCell id="HRm40gHiDsM_017SBDg4-14" style="edgeStyle=orthogonalEdgeStyle;rounded=0;orthogonalLoop=1;jettySize=auto;html=1;entryX=0.5;entryY=0;entryDx=0;entryDy=0;" edge="1" parent="WIyWlLk6GJQsqaUBKTNV-1" source="HRm40gHiDsM_017SBDg4-1" target="HRm40gHiDsM_017SBDg4-12">
          <mxGeometry relative="1" as="geometry" />
        </mxCell>
        <mxCell id="HRm40gHiDsM_017SBDg4-1" value="Ввод matrix (A), vector (b), tolerance" style="shape=parallelogram;perimeter=parallelogramPerimeter;whiteSpace=wrap;html=1;fixedSize=1;" vertex="1" parent="WIyWlLk6GJQsqaUBKTNV-1">
          <mxGeometry x="160" y="120" width="150" height="60" as="geometry" />
        </mxCell>
        <mxCell id="HRm40gHiDsM_017SBDg4-9" value="Нет" style="edgeStyle=orthogonalEdgeStyle;rounded=0;orthogonalLoop=1;jettySize=auto;html=1;entryX=0;entryY=0.5;entryDx=0;entryDy=0;" edge="1" parent="WIyWlLk6GJQsqaUBKTNV-1" source="HRm40gHiDsM_017SBDg4-3" target="HRm40gHiDsM_017SBDg4-8">
          <mxGeometry relative="1" as="geometry" />
        </mxCell>
        <mxCell id="HRm40gHiDsM_017SBDg4-52" style="edgeStyle=orthogonalEdgeStyle;rounded=0;orthogonalLoop=1;jettySize=auto;html=1;entryX=0.5;entryY=0;entryDx=0;entryDy=0;" edge="1" parent="WIyWlLk6GJQsqaUBKTNV-1" source="HRm40gHiDsM_017SBDg4-3" target="HRm40gHiDsM_017SBDg4-5">
          <mxGeometry relative="1" as="geometry" />
        </mxCell>
        <mxCell id="HRm40gHiDsM_017SBDg4-3" value="Определитель = 0 ?" style="rhombus;whiteSpace=wrap;html=1;" vertex="1" parent="WIyWlLk6GJQsqaUBKTNV-1">
          <mxGeometry x="160" y="270" width="150" height="80" as="geometry" />
        </mxCell>
        <mxCell id="HRm40gHiDsM_017SBDg4-5" value="Конец" style="ellipse;whiteSpace=wrap;html=1;" vertex="1" parent="WIyWlLk6GJQsqaUBKTNV-1">
          <mxGeometry x="175" y="390" width="120" height="40" as="geometry" />
        </mxCell>
        <mxCell id="HRm40gHiDsM_017SBDg4-22" value="Нет" style="edgeStyle=orthogonalEdgeStyle;rounded=0;orthogonalLoop=1;jettySize=auto;html=1;entryX=0;entryY=0.5;entryDx=0;entryDy=0;" edge="1" parent="WIyWlLk6GJQsqaUBKTNV-1" source="HRm40gHiDsM_017SBDg4-8" target="HRm40gHiDsM_017SBDg4-21">
          <mxGeometry relative="1" as="geometry" />
        </mxCell>
        <mxCell id="HRm40gHiDsM_017SBDg4-26" value="Да" style="edgeStyle=orthogonalEdgeStyle;rounded=0;orthogonalLoop=1;jettySize=auto;html=1;" edge="1" parent="WIyWlLk6GJQsqaUBKTNV-1" source="HRm40gHiDsM_017SBDg4-8" target="HRm40gHiDsM_017SBDg4-25">
          <mxGeometry relative="1" as="geometry" />
        </mxCell>
        <mxCell id="HRm40gHiDsM_017SBDg4-8" value="Диагональное преобладание?" style="rhombus;whiteSpace=wrap;html=1;" vertex="1" parent="WIyWlLk6GJQsqaUBKTNV-1">
          <mxGeometry x="360" y="270" width="150" height="80" as="geometry" />
        </mxCell>
        <mxCell id="HRm40gHiDsM_017SBDg4-20" value="Да" style="edgeStyle=orthogonalEdgeStyle;rounded=0;orthogonalLoop=1;jettySize=auto;html=1;" edge="1" parent="WIyWlLk6GJQsqaUBKTNV-1" source="HRm40gHiDsM_017SBDg4-11" target="HRm40gHiDsM_017SBDg4-16">
          <mxGeometry relative="1" as="geometry" />
        </mxCell>
        <mxCell id="HRm40gHiDsM_017SBDg4-27" value="Нет" style="edgeStyle=orthogonalEdgeStyle;rounded=0;orthogonalLoop=1;jettySize=auto;html=1;exitX=0;exitY=0.5;exitDx=0;exitDy=0;" edge="1" parent="WIyWlLk6GJQsqaUBKTNV-1" source="HRm40gHiDsM_017SBDg4-11" target="HRm40gHiDsM_017SBDg4-25">
          <mxGeometry relative="1" as="geometry">
            <Array as="points">
              <mxPoint x="560" y="420" />
              <mxPoint x="435" y="420" />
            </Array>
          </mxGeometry>
        </mxCell>
        <mxCell id="HRm40gHiDsM_017SBDg4-11" value="Есть нули на диагонали?" style="rhombus;whiteSpace=wrap;html=1;" vertex="1" parent="WIyWlLk6GJQsqaUBKTNV-1">
          <mxGeometry x="560" y="350" width="150" height="80" as="geometry" />
        </mxCell>
        <mxCell id="HRm40gHiDsM_017SBDg4-15" style="edgeStyle=orthogonalEdgeStyle;rounded=0;orthogonalLoop=1;jettySize=auto;html=1;entryX=0.5;entryY=0;entryDx=0;entryDy=0;" edge="1" parent="WIyWlLk6GJQsqaUBKTNV-1" source="HRm40gHiDsM_017SBDg4-12" target="HRm40gHiDsM_017SBDg4-3">
          <mxGeometry relative="1" as="geometry" />
        </mxCell>
        <mxCell id="HRm40gHiDsM_017SBDg4-12" value="Итерации = 1000000" style="rounded=1;whiteSpace=wrap;html=1;" vertex="1" parent="WIyWlLk6GJQsqaUBKTNV-1">
          <mxGeometry x="175" y="200" width="120" height="40" as="geometry" />
        </mxCell>
        <mxCell id="HRm40gHiDsM_017SBDg4-28" style="edgeStyle=orthogonalEdgeStyle;rounded=0;orthogonalLoop=1;jettySize=auto;html=1;entryX=0.5;entryY=0;entryDx=0;entryDy=0;" edge="1" parent="WIyWlLk6GJQsqaUBKTNV-1" source="HRm40gHiDsM_017SBDg4-16" target="HRm40gHiDsM_017SBDg4-25">
          <mxGeometry relative="1" as="geometry">
            <Array as="points">
              <mxPoint x="835" y="440" />
              <mxPoint x="435" y="440" />
            </Array>
          </mxGeometry>
        </mxCell>
        <mxCell id="HRm40gHiDsM_017SBDg4-16" value="Ввод числа итераций" style="shape=parallelogram;perimeter=parallelogramPerimeter;whiteSpace=wrap;html=1;fixedSize=1;" vertex="1" parent="WIyWlLk6GJQsqaUBKTNV-1">
          <mxGeometry x="760" y="360" width="150" height="60" as="geometry" />
        </mxCell>
        <mxCell id="HRm40gHiDsM_017SBDg4-23" style="edgeStyle=orthogonalEdgeStyle;rounded=0;orthogonalLoop=1;jettySize=auto;html=1;" edge="1" parent="WIyWlLk6GJQsqaUBKTNV-1" source="HRm40gHiDsM_017SBDg4-21" target="HRm40gHiDsM_017SBDg4-11">
          <mxGeometry relative="1" as="geometry" />
        </mxCell>
        <mxCell id="HRm40gHiDsM_017SBDg4-21" value="Привести к диагональному преобладанию" style="rounded=1;whiteSpace=wrap;html=1;" vertex="1" parent="WIyWlLk6GJQsqaUBKTNV-1">
          <mxGeometry x="575" y="290" width="120" height="40" as="geometry" />
        </mxCell>
        <mxCell id="HRm40gHiDsM_017SBDg4-45" style="edgeStyle=orthogonalEdgeStyle;rounded=0;orthogonalLoop=1;jettySize=auto;html=1;entryX=0.5;entryY=0;entryDx=0;entryDy=0;" edge="1" parent="WIyWlLk6GJQsqaUBKTNV-1" source="HRm40gHiDsM_017SBDg4-25" target="HRm40gHiDsM_017SBDg4-30">
          <mxGeometry relative="1" as="geometry" />
        </mxCell>
        <mxCell id="HRm40gHiDsM_017SBDg4-25" value="C = матрица&lt;br&gt;d = вектор" style="rounded=1;whiteSpace=wrap;html=1;" vertex="1" parent="WIyWlLk6GJQsqaUBKTNV-1">
          <mxGeometry x="375" y="460" width="120" height="40" as="geometry" />
        </mxCell>
        <mxCell id="HRm40gHiDsM_017SBDg4-51" style="edgeStyle=orthogonalEdgeStyle;rounded=0;orthogonalLoop=1;jettySize=auto;html=1;entryX=0.5;entryY=0;entryDx=0;entryDy=0;" edge="1" parent="WIyWlLk6GJQsqaUBKTNV-1" source="HRm40gHiDsM_017SBDg4-30" target="HRm40gHiDsM_017SBDg4-31">
          <mxGeometry relative="1" as="geometry" />
        </mxCell>
        <mxCell id="HRm40gHiDsM_017SBDg4-30" value="i = 0&lt;br&gt;j = 0" style="rounded=1;whiteSpace=wrap;html=1;" vertex="1" parent="WIyWlLk6GJQsqaUBKTNV-1">
          <mxGeometry x="375" y="520" width="120" height="40" as="geometry" />
        </mxCell>
        <mxCell id="HRm40gHiDsM_017SBDg4-35" value="Да" style="edgeStyle=orthogonalEdgeStyle;rounded=0;orthogonalLoop=1;jettySize=auto;html=1;entryX=0;entryY=0.5;entryDx=0;entryDy=0;" edge="1" parent="WIyWlLk6GJQsqaUBKTNV-1" source="HRm40gHiDsM_017SBDg4-31" target="HRm40gHiDsM_017SBDg4-33">
          <mxGeometry relative="1" as="geometry" />
        </mxCell>
        <mxCell id="HRm40gHiDsM_017SBDg4-36" value="Нет" style="edgeStyle=orthogonalEdgeStyle;rounded=0;orthogonalLoop=1;jettySize=auto;html=1;entryX=0.5;entryY=0;entryDx=0;entryDy=0;" edge="1" parent="WIyWlLk6GJQsqaUBKTNV-1" source="HRm40gHiDsM_017SBDg4-31" target="HRm40gHiDsM_017SBDg4-34">
          <mxGeometry relative="1" as="geometry" />
        </mxCell>
        <mxCell id="HRm40gHiDsM_017SBDg4-31" value="i = j ?" style="rhombus;whiteSpace=wrap;html=1;" vertex="1" parent="WIyWlLk6GJQsqaUBKTNV-1">
          <mxGeometry x="377.5" y="585" width="115" height="50" as="geometry" />
        </mxCell>
        <mxCell id="HRm40gHiDsM_017SBDg4-39" style="edgeStyle=orthogonalEdgeStyle;rounded=0;orthogonalLoop=1;jettySize=auto;html=1;" edge="1" parent="WIyWlLk6GJQsqaUBKTNV-1" source="HRm40gHiDsM_017SBDg4-33" target="HRm40gHiDsM_017SBDg4-38">
          <mxGeometry relative="1" as="geometry" />
        </mxCell>
        <mxCell id="HRm40gHiDsM_017SBDg4-33" value="Cij = 0" style="rounded=1;whiteSpace=wrap;html=1;" vertex="1" parent="WIyWlLk6GJQsqaUBKTNV-1">
          <mxGeometry x="530" y="590" width="120" height="40" as="geometry" />
        </mxCell>
        <mxCell id="HRm40gHiDsM_017SBDg4-40" style="edgeStyle=orthogonalEdgeStyle;rounded=0;orthogonalLoop=1;jettySize=auto;html=1;entryX=0;entryY=0.5;entryDx=0;entryDy=0;" edge="1" parent="WIyWlLk6GJQsqaUBKTNV-1" source="HRm40gHiDsM_017SBDg4-34" target="HRm40gHiDsM_017SBDg4-38">
          <mxGeometry relative="1" as="geometry" />
        </mxCell>
        <mxCell id="HRm40gHiDsM_017SBDg4-34" value="Cij = -Aij/Aii" style="rounded=1;whiteSpace=wrap;html=1;" vertex="1" parent="WIyWlLk6GJQsqaUBKTNV-1">
          <mxGeometry x="375" y="660" width="120" height="40" as="geometry" />
        </mxCell>
        <mxCell id="HRm40gHiDsM_017SBDg4-43" value="Да" style="edgeStyle=orthogonalEdgeStyle;rounded=0;orthogonalLoop=1;jettySize=auto;html=1;entryX=0;entryY=0.5;entryDx=0;entryDy=0;" edge="1" parent="WIyWlLk6GJQsqaUBKTNV-1" source="HRm40gHiDsM_017SBDg4-38" target="HRm40gHiDsM_017SBDg4-42">
          <mxGeometry x="0.3275" relative="1" as="geometry">
            <mxPoint as="offset" />
          </mxGeometry>
        </mxCell>
        <mxCell id="HRm40gHiDsM_017SBDg4-50" value="Нет" style="edgeStyle=orthogonalEdgeStyle;rounded=0;orthogonalLoop=1;jettySize=auto;html=1;entryX=0.5;entryY=0;entryDx=0;entryDy=0;" edge="1" parent="WIyWlLk6GJQsqaUBKTNV-1" source="HRm40gHiDsM_017SBDg4-38" target="HRm40gHiDsM_017SBDg4-41">
          <mxGeometry relative="1" as="geometry" />
        </mxCell>
        <mxCell id="HRm40gHiDsM_017SBDg4-38" value="j &amp;lt; размер C ?" style="rhombus;whiteSpace=wrap;html=1;" vertex="1" parent="WIyWlLk6GJQsqaUBKTNV-1">
          <mxGeometry x="532.5" y="655" width="115" height="50" as="geometry" />
        </mxCell>
        <mxCell id="HRm40gHiDsM_017SBDg4-48" value="Да" style="edgeStyle=orthogonalEdgeStyle;rounded=0;orthogonalLoop=1;jettySize=auto;html=1;entryX=1;entryY=0.5;entryDx=0;entryDy=0;" edge="1" parent="WIyWlLk6GJQsqaUBKTNV-1" source="HRm40gHiDsM_017SBDg4-41" target="HRm40gHiDsM_017SBDg4-47">
          <mxGeometry relative="1" as="geometry" />
        </mxCell>
        <mxCell id="HRm40gHiDsM_017SBDg4-55" value="Нет" style="edgeStyle=orthogonalEdgeStyle;rounded=0;orthogonalLoop=1;jettySize=auto;html=1;entryX=0;entryY=0.5;entryDx=0;entryDy=0;" edge="1" parent="WIyWlLk6GJQsqaUBKTNV-1" source="HRm40gHiDsM_017SBDg4-41" target="HRm40gHiDsM_017SBDg4-54">
          <mxGeometry relative="1" as="geometry" />
        </mxCell>
        <mxCell id="HRm40gHiDsM_017SBDg4-41" value="i &amp;lt; размер C ?" style="rhombus;whiteSpace=wrap;html=1;" vertex="1" parent="WIyWlLk6GJQsqaUBKTNV-1">
          <mxGeometry x="532.5" y="730" width="115" height="50" as="geometry" />
        </mxCell>
        <mxCell id="HRm40gHiDsM_017SBDg4-44" style="edgeStyle=orthogonalEdgeStyle;rounded=0;orthogonalLoop=1;jettySize=auto;html=1;entryX=0.5;entryY=0;entryDx=0;entryDy=0;" edge="1" parent="WIyWlLk6GJQsqaUBKTNV-1" source="HRm40gHiDsM_017SBDg4-42" target="HRm40gHiDsM_017SBDg4-31">
          <mxGeometry relative="1" as="geometry">
            <Array as="points">
              <mxPoint x="740" y="570" />
              <mxPoint x="435" y="570" />
            </Array>
          </mxGeometry>
        </mxCell>
        <mxCell id="HRm40gHiDsM_017SBDg4-42" value="j++" style="rounded=1;whiteSpace=wrap;html=1;" vertex="1" parent="WIyWlLk6GJQsqaUBKTNV-1">
          <mxGeometry x="680" y="660" width="120" height="40" as="geometry" />
        </mxCell>
        <mxCell id="HRm40gHiDsM_017SBDg4-49" style="edgeStyle=orthogonalEdgeStyle;rounded=0;orthogonalLoop=1;jettySize=auto;html=1;entryX=0;entryY=0.5;entryDx=0;entryDy=0;" edge="1" parent="WIyWlLk6GJQsqaUBKTNV-1" source="HRm40gHiDsM_017SBDg4-47" target="HRm40gHiDsM_017SBDg4-31">
          <mxGeometry relative="1" as="geometry">
            <Array as="points">
              <mxPoint x="355" y="745" />
              <mxPoint x="355" y="610" />
            </Array>
          </mxGeometry>
        </mxCell>
        <mxCell id="HRm40gHiDsM_017SBDg4-47" value="i++&lt;br&gt;j = 0" style="rounded=1;whiteSpace=wrap;html=1;" vertex="1" parent="WIyWlLk6GJQsqaUBKTNV-1">
          <mxGeometry x="377.5" y="735" width="120" height="40" as="geometry" />
        </mxCell>
        <mxCell id="HRm40gHiDsM_017SBDg4-57" style="edgeStyle=orthogonalEdgeStyle;rounded=0;orthogonalLoop=1;jettySize=auto;html=1;entryX=0.5;entryY=0;entryDx=0;entryDy=0;" edge="1" parent="WIyWlLk6GJQsqaUBKTNV-1" source="HRm40gHiDsM_017SBDg4-54" target="HRm40gHiDsM_017SBDg4-56">
          <mxGeometry relative="1" as="geometry" />
        </mxCell>
        <mxCell id="HRm40gHiDsM_017SBDg4-54" value="i = 0" style="rounded=1;whiteSpace=wrap;html=1;" vertex="1" parent="WIyWlLk6GJQsqaUBKTNV-1">
          <mxGeometry x="680" y="735" width="120" height="40" as="geometry" />
        </mxCell>
        <mxCell id="HRm40gHiDsM_017SBDg4-59" style="edgeStyle=orthogonalEdgeStyle;rounded=0;orthogonalLoop=1;jettySize=auto;html=1;entryX=0.5;entryY=0;entryDx=0;entryDy=0;" edge="1" parent="WIyWlLk6GJQsqaUBKTNV-1" source="HRm40gHiDsM_017SBDg4-56" target="HRm40gHiDsM_017SBDg4-58">
          <mxGeometry relative="1" as="geometry" />
        </mxCell>
        <mxCell id="HRm40gHiDsM_017SBDg4-56" value="di = bi / Aii" style="rounded=1;whiteSpace=wrap;html=1;" vertex="1" parent="WIyWlLk6GJQsqaUBKTNV-1">
          <mxGeometry x="680" y="800" width="120" height="40" as="geometry" />
        </mxCell>
        <mxCell id="HRm40gHiDsM_017SBDg4-61" value="Да" style="edgeStyle=orthogonalEdgeStyle;rounded=0;orthogonalLoop=1;jettySize=auto;html=1;entryX=1;entryY=0.5;entryDx=0;entryDy=0;" edge="1" parent="WIyWlLk6GJQsqaUBKTNV-1" source="HRm40gHiDsM_017SBDg4-58" target="HRm40gHiDsM_017SBDg4-60">
          <mxGeometry relative="1" as="geometry" />
        </mxCell>
        <mxCell id="HRm40gHiDsM_017SBDg4-64" value="Нет" style="edgeStyle=orthogonalEdgeStyle;rounded=0;orthogonalLoop=1;jettySize=auto;html=1;" edge="1" parent="WIyWlLk6GJQsqaUBKTNV-1" source="HRm40gHiDsM_017SBDg4-58" target="HRm40gHiDsM_017SBDg4-63">
          <mxGeometry relative="1" as="geometry" />
        </mxCell>
        <mxCell id="HRm40gHiDsM_017SBDg4-58" value="i &amp;lt; размер d ?" style="rhombus;whiteSpace=wrap;html=1;" vertex="1" parent="WIyWlLk6GJQsqaUBKTNV-1">
          <mxGeometry x="682.5" y="860" width="115" height="50" as="geometry" />
        </mxCell>
        <mxCell id="HRm40gHiDsM_017SBDg4-62" style="edgeStyle=orthogonalEdgeStyle;rounded=0;orthogonalLoop=1;jettySize=auto;html=1;entryX=0;entryY=0.5;entryDx=0;entryDy=0;" edge="1" parent="WIyWlLk6GJQsqaUBKTNV-1" source="HRm40gHiDsM_017SBDg4-60" target="HRm40gHiDsM_017SBDg4-56">
          <mxGeometry relative="1" as="geometry">
            <Array as="points">
              <mxPoint x="600" y="820" />
            </Array>
          </mxGeometry>
        </mxCell>
        <mxCell id="HRm40gHiDsM_017SBDg4-60" value="i++" style="rounded=1;whiteSpace=wrap;html=1;" vertex="1" parent="WIyWlLk6GJQsqaUBKTNV-1">
          <mxGeometry x="527.5" y="865" width="120" height="40" as="geometry" />
        </mxCell>
        <mxCell id="HRm40gHiDsM_017SBDg4-93" style="edgeStyle=orthogonalEdgeStyle;rounded=0;orthogonalLoop=1;jettySize=auto;html=1;" edge="1" parent="WIyWlLk6GJQsqaUBKTNV-1" source="HRm40gHiDsM_017SBDg4-63" target="HRm40gHiDsM_017SBDg4-66">
          <mxGeometry relative="1" as="geometry" />
        </mxCell>
        <mxCell id="HRm40gHiDsM_017SBDg4-63" value="x = вектор" style="rounded=1;whiteSpace=wrap;html=1;" vertex="1" parent="WIyWlLk6GJQsqaUBKTNV-1">
          <mxGeometry x="680" y="940" width="120" height="30" as="geometry" />
        </mxCell>
        <mxCell id="HRm40gHiDsM_017SBDg4-94" style="edgeStyle=orthogonalEdgeStyle;rounded=0;orthogonalLoop=1;jettySize=auto;html=1;" edge="1" parent="WIyWlLk6GJQsqaUBKTNV-1" source="HRm40gHiDsM_017SBDg4-66" target="HRm40gHiDsM_017SBDg4-68">
          <mxGeometry relative="1" as="geometry" />
        </mxCell>
        <mxCell id="HRm40gHiDsM_017SBDg4-66" value="НовыйX = вектор" style="rounded=1;whiteSpace=wrap;html=1;" vertex="1" parent="WIyWlLk6GJQsqaUBKTNV-1">
          <mxGeometry x="680" y="990" width="120" height="30" as="geometry" />
        </mxCell>
        <mxCell id="HRm40gHiDsM_017SBDg4-83" style="edgeStyle=orthogonalEdgeStyle;rounded=0;orthogonalLoop=1;jettySize=auto;html=1;entryX=0.5;entryY=0;entryDx=0;entryDy=0;" edge="1" parent="WIyWlLk6GJQsqaUBKTNV-1" source="HRm40gHiDsM_017SBDg4-68" target="HRm40gHiDsM_017SBDg4-82">
          <mxGeometry relative="1" as="geometry" />
        </mxCell>
        <mxCell id="HRm40gHiDsM_017SBDg4-68" value="i = 0&lt;br&gt;j = 0" style="rounded=1;whiteSpace=wrap;html=1;" vertex="1" parent="WIyWlLk6GJQsqaUBKTNV-1">
          <mxGeometry x="680" y="1040" width="120" height="40" as="geometry" />
        </mxCell>
        <mxCell id="HRm40gHiDsM_017SBDg4-91" value="Да" style="edgeStyle=orthogonalEdgeStyle;rounded=0;orthogonalLoop=1;jettySize=auto;html=1;entryX=0.5;entryY=1;entryDx=0;entryDy=0;" edge="1" parent="WIyWlLk6GJQsqaUBKTNV-1" source="HRm40gHiDsM_017SBDg4-77" target="HRm40gHiDsM_017SBDg4-86">
          <mxGeometry relative="1" as="geometry" />
        </mxCell>
        <mxCell id="HRm40gHiDsM_017SBDg4-92" value="Нет" style="edgeStyle=orthogonalEdgeStyle;rounded=0;orthogonalLoop=1;jettySize=auto;html=1;entryX=0.5;entryY=0;entryDx=0;entryDy=0;" edge="1" parent="WIyWlLk6GJQsqaUBKTNV-1" source="HRm40gHiDsM_017SBDg4-77" target="HRm40gHiDsM_017SBDg4-79">
          <mxGeometry relative="1" as="geometry">
            <Array as="points">
              <mxPoint x="740" y="1230" />
              <mxPoint x="895" y="1230" />
            </Array>
          </mxGeometry>
        </mxCell>
        <mxCell id="HRm40gHiDsM_017SBDg4-77" value="j &amp;lt; размер C ?" style="rhombus;whiteSpace=wrap;html=1;" vertex="1" parent="WIyWlLk6GJQsqaUBKTNV-1">
          <mxGeometry x="682.5" y="1169" width="115" height="50" as="geometry" />
        </mxCell>
        <mxCell id="HRm40gHiDsM_017SBDg4-78" value="Да" style="edgeStyle=orthogonalEdgeStyle;rounded=0;orthogonalLoop=1;jettySize=auto;html=1;entryX=1;entryY=0.5;entryDx=0;entryDy=0;" edge="1" parent="WIyWlLk6GJQsqaUBKTNV-1" source="HRm40gHiDsM_017SBDg4-79" target="HRm40gHiDsM_017SBDg4-81">
          <mxGeometry relative="1" as="geometry" />
        </mxCell>
        <mxCell id="HRm40gHiDsM_017SBDg4-79" value="i &amp;lt; размер C ?" style="rhombus;whiteSpace=wrap;html=1;" vertex="1" parent="WIyWlLk6GJQsqaUBKTNV-1">
          <mxGeometry x="837.5" y="1252.5" width="115" height="50" as="geometry" />
        </mxCell>
        <mxCell id="HRm40gHiDsM_017SBDg4-80" style="edgeStyle=orthogonalEdgeStyle;rounded=0;orthogonalLoop=1;jettySize=auto;html=1;entryX=0;entryY=0.5;entryDx=0;entryDy=0;exitX=0;exitY=0.5;exitDx=0;exitDy=0;" edge="1" parent="WIyWlLk6GJQsqaUBKTNV-1" source="HRm40gHiDsM_017SBDg4-81">
          <mxGeometry relative="1" as="geometry">
            <Array as="points">
              <mxPoint x="660" y="1278" />
              <mxPoint x="660" y="1130" />
            </Array>
            <mxPoint x="682.4999999999998" y="1130" as="targetPoint" />
          </mxGeometry>
        </mxCell>
        <mxCell id="HRm40gHiDsM_017SBDg4-81" value="НовыйXi += di&lt;br&gt;i++&lt;br&gt;j = 0" style="rounded=1;whiteSpace=wrap;html=1;" vertex="1" parent="WIyWlLk6GJQsqaUBKTNV-1">
          <mxGeometry x="682.5" y="1255" width="120" height="45" as="geometry" />
        </mxCell>
        <mxCell id="HRm40gHiDsM_017SBDg4-85" style="edgeStyle=orthogonalEdgeStyle;rounded=0;orthogonalLoop=1;jettySize=auto;html=1;entryX=0.5;entryY=0;entryDx=0;entryDy=0;" edge="1" parent="WIyWlLk6GJQsqaUBKTNV-1" source="HRm40gHiDsM_017SBDg4-82" target="HRm40gHiDsM_017SBDg4-77">
          <mxGeometry relative="1" as="geometry" />
        </mxCell>
        <mxCell id="HRm40gHiDsM_017SBDg4-82" value="НовыйXi += Cij * xj" style="rounded=1;whiteSpace=wrap;html=1;" vertex="1" parent="WIyWlLk6GJQsqaUBKTNV-1">
          <mxGeometry x="680" y="1110" width="120" height="40" as="geometry" />
        </mxCell>
        <mxCell id="HRm40gHiDsM_017SBDg4-88" style="edgeStyle=orthogonalEdgeStyle;rounded=0;orthogonalLoop=1;jettySize=auto;html=1;entryX=1;entryY=0.5;entryDx=0;entryDy=0;" edge="1" parent="WIyWlLk6GJQsqaUBKTNV-1" source="HRm40gHiDsM_017SBDg4-86" target="HRm40gHiDsM_017SBDg4-82">
          <mxGeometry relative="1" as="geometry" />
        </mxCell>
        <mxCell id="HRm40gHiDsM_017SBDg4-86" value="j++" style="rounded=1;whiteSpace=wrap;html=1;" vertex="1" parent="WIyWlLk6GJQsqaUBKTNV-1">
          <mxGeometry x="835" y="1110" width="120" height="40" as="geometry" />
        </mxCell>
        <mxCell id="HRm40gHiDsM_017SBDg4-100" style="edgeStyle=orthogonalEdgeStyle;rounded=0;orthogonalLoop=1;jettySize=auto;html=1;entryX=0.5;entryY=0;entryDx=0;entryDy=0;" edge="1" parent="WIyWlLk6GJQsqaUBKTNV-1" source="HRm40gHiDsM_017SBDg4-95" target="HRm40gHiDsM_017SBDg4-96">
          <mxGeometry relative="1" as="geometry" />
        </mxCell>
        <mxCell id="HRm40gHiDsM_017SBDg4-95" value="maxDiff = Максимальная разница между X и НовыйX" style="rounded=1;whiteSpace=wrap;html=1;" vertex="1" parent="WIyWlLk6GJQsqaUBKTNV-1">
          <mxGeometry x="837.5" y="1330" width="120" height="60" as="geometry" />
        </mxCell>
        <mxCell id="HRm40gHiDsM_017SBDg4-102" value="Нет" style="edgeStyle=orthogonalEdgeStyle;rounded=0;orthogonalLoop=1;jettySize=auto;html=1;entryX=1;entryY=0.5;entryDx=0;entryDy=0;" edge="1" parent="WIyWlLk6GJQsqaUBKTNV-1" source="HRm40gHiDsM_017SBDg4-96" target="HRm40gHiDsM_017SBDg4-101">
          <mxGeometry relative="1" as="geometry" />
        </mxCell>
        <mxCell id="HRm40gHiDsM_017SBDg4-105" style="edgeStyle=orthogonalEdgeStyle;rounded=0;orthogonalLoop=1;jettySize=auto;html=1;entryX=0;entryY=0.5;entryDx=0;entryDy=0;" edge="1" parent="WIyWlLk6GJQsqaUBKTNV-1" source="HRm40gHiDsM_017SBDg4-96" target="HRm40gHiDsM_017SBDg4-104">
          <mxGeometry relative="1" as="geometry" />
        </mxCell>
        <mxCell id="HRm40gHiDsM_017SBDg4-96" value="maxDiff &amp;lt; tolerance&amp;nbsp;" style="rhombus;whiteSpace=wrap;html=1;" vertex="1" parent="WIyWlLk6GJQsqaUBKTNV-1">
          <mxGeometry x="840" y="1420" width="115" height="50" as="geometry" />
        </mxCell>
        <mxCell id="HRm40gHiDsM_017SBDg4-99" style="edgeStyle=orthogonalEdgeStyle;rounded=0;orthogonalLoop=1;jettySize=auto;html=1;entryX=0.463;entryY=-0.011;entryDx=0;entryDy=0;entryPerimeter=0;" edge="1" parent="WIyWlLk6GJQsqaUBKTNV-1" source="HRm40gHiDsM_017SBDg4-79" target="HRm40gHiDsM_017SBDg4-95">
          <mxGeometry relative="1" as="geometry" />
        </mxCell>
        <mxCell id="HRm40gHiDsM_017SBDg4-103" style="edgeStyle=orthogonalEdgeStyle;rounded=0;orthogonalLoop=1;jettySize=auto;html=1;entryX=0;entryY=0.75;entryDx=0;entryDy=0;" edge="1" parent="WIyWlLk6GJQsqaUBKTNV-1" source="HRm40gHiDsM_017SBDg4-101" target="HRm40gHiDsM_017SBDg4-66">
          <mxGeometry relative="1" as="geometry">
            <Array as="points">
              <mxPoint x="620" y="1445" />
              <mxPoint x="620" y="1012" />
            </Array>
          </mxGeometry>
        </mxCell>
        <mxCell id="HRm40gHiDsM_017SBDg4-101" value="x = НовыйX" style="rounded=1;whiteSpace=wrap;html=1;" vertex="1" parent="WIyWlLk6GJQsqaUBKTNV-1">
          <mxGeometry x="677.5" y="1422.5" width="120" height="45" as="geometry" />
        </mxCell>
        <mxCell id="HRm40gHiDsM_017SBDg4-104" value="Конец" style="ellipse;whiteSpace=wrap;html=1;" vertex="1" parent="WIyWlLk6GJQsqaUBKTNV-1">
          <mxGeometry x="1000" y="1425" width="120" height="40" as="geometry" />
        </mxCell>
      </root>
    </mxGraphModel>
  </diagram>
</mxfile>
